<?xml version="1.0" encoding="UTF-8"?>
<svg xmlns="http://www.w3.org/2000/svg" viewBox="0 0 64 64">
    <path fill="#235594" d="M0 0h64v64H0z"/>

    <g fill="#ffffff">
        <path d="M53.6,28.3l-4.5-0.8c-0.3-1.1-0.8-2.2-1.4-3.2l2.4-3.9c0.4-0.6,0.2-1.4-0.3-1.9l-3.8-3.8c-0.5-0.5-1.3-0.6-1.9-0.3 l-3.9,2.4c-1-0.6-2.1-1.1-3.2-1.4l-0.8-4.5C36,10.2,35.4,9.6,34.7,9.6h-5.3c-0.7,0-1.3,0.5-1.5,1.2l-0.8,4.5 c-1.1,0.3-2.2,0.8-3.2,1.4l-3.9-2.4c-0.6-0.4-1.4-0.2-1.9,0.3l-3.8,3.8c-0.5,0.5-0.6,1.3-0.3,1.9l2.4,3.9c-0.6,1-1.1,2.1-1.4,3.2 l-4.5,0.8c-0.7,0.1-1.2,0.8-1.2,1.5v5.3c0,0.7,0.5,1.3,1.2,1.5l4.5,0.8c0.3,1.1,0.8,2.2,1.4,3.2l-2.4,3.9c-0.4,0.6-0.2,1.4,0.3,1.9 l3.8,3.8c0.5,0.5,1.3,0.6,1.9,0.3l3.9-2.4c1,0.6,2.1,1.1,3.2,1.4l0.8,4.5c0.1,0.7,0.8,1.2,1.5,1.2h5.3c0.7,0,1.3-0.5,1.5-1.2 l0.8-4.5c1.1-0.3,2.2-0.8,3.2-1.4l3.9,2.4c0.6,0.4,1.4,0.2,1.9-0.3l3.8-3.8c0.5-0.5,0.6-1.3,0.3-1.9l-2.4-3.9 c0.6-1,1.1-2.1,1.4-3.2l4.5-0.8c0.7-0.1,1.2-0.8,1.2-1.5v-5.3C54.9,29.1,54.3,28.5,53.6,28.3z M32,44.8 c-7.1,0-12.8-5.7-12.8-12.8S24.9,19.2,32,19.2S44.8,24.9,44.8,32S39.1,44.8,32,44.8z"/>
        <path d="M32,24c-4.4,0-8,3.6-8,8s3.6,8,8,8s8-3.6,8-8S36.4,24,32,24z"/>
    </g>
</svg>