<?xml version="1.0" encoding="utf-8"?>
<svg version="1.0" xmlns="http://www.w3.org/2000/svg" xmlns:xlink="http://www.w3.org/1999/xlink"
	 width="24" height="24" viewBox="0 0 50 50" xml:space="preserve">
<defs>
	<linearGradient id="linearBlue" x1="15%" y1="0" x2="100%" y2="100%">
		<stop stop-color="#3c59c9" offset="0%" stop-opacity="1" />
		<stop stop-color="#3c59c9" offset="18%" stop-opacity="0" />
	</linearGradient>
	<radialGradient id="instagradient" gradientUnits="userSpaceOnUse" cx="25%" cy="100%" r="110%">
		<stop stop-color="#ffcc66" offset="0%" />
		<stop stop-color="#ff5d26" offset="40%" />
		<stop stop-color="#e9247f" offset="75%" />
		<stop stop-color="#ba2eaa" offset="100%" />
	</radialGradient>
</defs>
<g>
	<path fill="url(#instagradient)" d="M25.064,38.115c-7.256,0-13.16-5.904-13.16-13.161s5.904-13.16,13.16-13.16c7.258,0,13.161,5.903,13.161,13.16
		S32.322,38.115,25.064,38.115z M25.064,16.121c-4.87,0-8.833,3.962-8.833,8.833c0,4.87,3.963,8.834,8.833,8.834
		c4.872,0,8.834-3.964,8.834-8.834C33.898,20.083,29.937,16.121,25.064,16.121z M38.775,7.83c-1.691,0-3.06,1.369-3.06,3.06
		c0,1.69,1.368,3.059,3.06,3.059s3.06-1.369,3.06-3.059C41.835,9.198,40.467,7.83,38.775,7.83z M50,38.154
		C50,44.696,44.696,50,38.154,50H11.846C5.304,50,0,44.696,0,38.154V11.846C0,5.304,5.304,0,11.846,0h26.309
		C44.696,0,50,5.304,50,11.846V38.154z M46.154,11.673c0-4.323-3.505-7.827-7.827-7.827H11.673c-4.322,0-7.827,3.504-7.827,7.827
		v26.653c0,4.323,3.505,7.828,7.827,7.828h26.654c4.322,0,7.827-3.505,7.827-7.828V11.673z"/>
	<path fill="url(#linearBlue)" d="M50,38.154C50,44.696,44.696,50,38.154,50H11.846C5.304,50,0,44.696,0,38.154V11.846C0,5.304,5.304,0,11.846,0h26.309
	C44.696,0,50,5.304,50,11.846V38.154z M46.154,11.673c0-4.323-3.505-7.827-7.827-7.827H11.673c-4.322,0-7.827,3.504-7.827,7.827
	v26.653c0,4.323,3.505,7.828,7.827,7.828h26.654c4.322,0,7.827-3.505,7.827-7.828V11.673z"/>
</g>
</svg>
