<?xml version="1.0" encoding="utf-8"?>
<!-- Generator: Adobe Illustrator 16.0.3, SVG Export Plug-In . SVG Version: 6.00 Build 0)  -->
<!DOCTYPE svg PUBLIC "-//W3C//DTD SVG 1.1 Tiny//EN" "http://www.w3.org/Graphics/SVG/1.1/DTD/svg11-tiny.dtd">
<svg version="1.1" baseProfile="tiny" id="Ebene_1" xmlns="http://www.w3.org/2000/svg" xmlns:xlink="http://www.w3.org/1999/xlink"
	 x="0px" y="0px" width="24px" height="24px" viewBox="0 34.25 24 24" xml:space="preserve">
<path fill="#00ACED" d="M24,38.807c-0.883,0.393-1.832,0.656-2.828,0.775c1.018-0.609,1.799-1.574,2.165-2.725
	c-0.95,0.564-2.005,0.975-3.127,1.195c-0.897-0.957-2.178-1.555-3.594-1.555c-3.179,0-5.515,2.966-4.798,6.045
	c-4.09-0.205-7.719-2.165-10.147-5.145c-1.29,2.213-0.669,5.108,1.522,6.574c-0.805-0.025-1.565-0.246-2.229-0.615
	c-0.054,2.281,1.581,4.414,3.949,4.89c-0.693,0.188-1.452,0.231-2.225,0.084c0.627,1.956,2.444,3.379,4.601,3.419
	C5.221,53.373,2.611,54.098,0,53.79c2.18,1.397,4.768,2.212,7.548,2.212c9.142,0,14.308-7.721,13.995-14.646
	C22.505,40.661,23.34,39.794,24,38.807z"/>
</svg>
