<svg width="24" height="24" viewBox="0 0 17 17" xmlns="http://www.w3.org/2000/svg"><title>icn_instagram</title><path d="M16.949 4.995a6.242 6.242 0 0 0-.395-2.063 4.172 4.172 0 0 0-.98-1.506 4.163 4.163 0 0 0-1.506-.98 6.242 6.242 0 0 0-2.063-.395C11.098.01 10.809 0 8.5 0 6.192 0 5.902.01 4.995.051a6.242 6.242 0 0 0-2.063.395 4.172 4.172 0 0 0-1.506.98 4.163 4.163 0 0 0-.98 1.506 6.242 6.242 0 0 0-.395 2.063C.01 5.902 0 6.191 0 8.5c0 2.308.01 2.598.051 3.505.014.705.148 1.403.395 2.063.213.567.548 1.081.98 1.506.425.432.938.767 1.506.98.66.247 1.358.381 2.063.395.907.041 1.196.051 3.505.051 2.308 0 2.598-.01 3.505-.051a6.242 6.242 0 0 0 2.063-.395 4.348 4.348 0 0 0 2.486-2.486c.247-.66.381-1.358.395-2.063.041-.907.051-1.196.051-3.505 0-2.308-.01-2.598-.051-3.505zm-1.53 6.939a4.672 4.672 0 0 1-.293 1.578 2.816 2.816 0 0 1-1.613 1.613 4.722 4.722 0 0 1-1.578.293c-.896.041-1.165.05-3.435.05s-2.539-.009-3.435-.05a4.672 4.672 0 0 1-1.578-.293 2.621 2.621 0 0 1-.977-.636 2.633 2.633 0 0 1-.636-.977 4.722 4.722 0 0 1-.293-1.578c-.041-.896-.05-1.165-.05-3.435s.009-2.538.05-3.435a4.672 4.672 0 0 1 .293-1.578c.136-.369.353-.703.636-.977.274-.282.608-.5.977-.636a4.722 4.722 0 0 1 1.578-.293c.896-.041 1.165-.05 3.435-.05s2.538.009 3.435.05a4.672 4.672 0 0 1 1.578.293c.369.136.703.353.977.636.282.274.5.608.636.977.187.505.286 1.039.293 1.578.041.896.05 1.165.05 3.435s-.009 2.538-.05 3.435zM8.5 4.134a4.365 4.365 0 1 0 0 8.73 4.365 4.365 0 0 0 0-8.73zm0 7.198a2.833 2.833 0 1 1 0-5.666 2.833 2.833 0 0 1 0 5.666zm5.557-7.371a1.02 1.02 0 1 1-2.04 0 1.02 1.02 0 0 1 2.04 0z" fill="#333"/></svg>