<?xml version="1.0" encoding="utf-8"?>
<!-- Generator: Adobe Illustrator 16.0.3, SVG Export Plug-In . SVG Version: 6.00 Build 0)  -->
<!DOCTYPE svg PUBLIC "-//W3C//DTD SVG 1.1 Tiny//EN" "http://www.w3.org/Graphics/SVG/1.1/DTD/svg11-tiny.dtd">
<svg version="1.1" baseProfile="tiny" id="Ebene_1" xmlns="http://www.w3.org/2000/svg" xmlns:xlink="http://www.w3.org/1999/xlink"
	 x="0px" y="0px" width="24px" height="24px" viewBox="36.334 0 24 24" xml:space="preserve">
<path fill="#333333" d="M55.334,0h-14c-2.761,0-5,2.239-5,5v14c0,2.761,2.239,5,5,5h14c2.762,0,5-2.239,5-5V5
	C60.334,2.239,58.096,0,55.334,0z M52.334,7H50.41c-0.615,0-1.076,0.252-1.076,0.889V9h3l-0.238,3h-2.762v8h-3v-8h-2V9h2V7.077
	C46.334,5.055,47.397,4,49.795,4h2.539V7z"/>
</svg>
