<?xml version="1.0" encoding="utf-8"?>
<!-- Generator: Adobe Illustrator 16.0.3, SVG Export Plug-In . SVG Version: 6.00 Build 0)  -->
<!DOCTYPE svg PUBLIC "-//W3C//DTD SVG 1.1//EN" "http://www.w3.org/Graphics/SVG/1.1/DTD/svg11.dtd">
<svg version="1.1" id="Ebene_1" xmlns="http://www.w3.org/2000/svg" xmlns:xlink="http://www.w3.org/1999/xlink" x="0px" y="0px"
	 width="50px" height="50px" viewBox="0 0 50 50" enable-background="new 0 0 50 50" xml:space="preserve">
<g>
	<rect x="1" fill="#FFFFFF" width="49" height="49"/>
	<path fill="#666666" d="M49,1v48H1V1H49 M50,0H0v50h50V0L50,0z"/>
</g>
<g>
	<polygon fill="#EFEFEF" stroke="#666666" stroke-miterlimit="10" points="6.5,4.333 6.5,46.5 33.5,46.5 33.5,17.333 20.334,4.167 	
		"/>
	<polyline fill="none" stroke="#666666" stroke-linecap="square" stroke-miterlimit="10" points="20.5,5 20.5,17.5 33,17.5 	"/>
</g>
<g enable-background="new    ">
	<path fill="#009EE0" d="M45.805,25.433l-6.008,6.008c-0.141,0.141-0.328,0.223-0.528,0.223c-0.411,0-0.751-0.34-0.751-0.751v-3.004
		h-2.629c-5.057,0-8.377,0.974-8.377,6.571c0,0.48,0.023,0.962,0.059,1.443c0.012,0.188,0.059,0.398,0.059,0.586
		c0,0.224-0.141,0.411-0.376,0.411c-0.164,0-0.247-0.082-0.329-0.199c-0.176-0.247-0.305-0.622-0.434-0.892
		C25.821,34.327,25,32.18,25,30.537c0-1.314,0.129-2.664,0.622-3.908c1.631-4.048,6.419-4.729,10.267-4.729h2.629v-3.004
		c0-0.411,0.34-0.751,0.751-0.751c0.2,0,0.388,0.082,0.528,0.223l6.008,6.008c0.141,0.141,0.223,0.329,0.223,0.528
		S45.945,25.292,45.805,25.433z"/>
</g>
</svg>
