<svg xmlns="http://www.w3.org/2000/svg" width="34" height="34" baseProfile="tiny" viewBox="0 0 34 34"><path fill="#6e7500" d="M16.63 16.42c-2.12 0-3.85-1.73-3.85-3.85s1.73-3.85 3.85-3.85 3.85 1.73 3.85 3.85-1.73 3.85-3.85 3.85zm0-6.5c-1.46 0-2.65 1.2-2.65 2.65s1.2 2.65 2.65 2.65c1.46 0 2.65-1.2 2.65-2.65s-1.2-2.65-2.65-2.65zM24.47 24.17H8.43c-.22 0-.42-.12-.53-.32-.1-.2-.1-.43.03-.6l3.25-4.9c.1-.18.3-.28.5-.28h9.45c1.4 0 3.04 3.3 3.9 5.26.07.2.05.4-.06.57-.1.17-.3.27-.5.27zm-14.92-1.2h14c-.94-1.95-2-3.6-2.44-3.7H12l-2.45 3.7z"/></svg>
