<?xml version="1.0" encoding="UTF-8" standalone="no"?>
<svg
   xmlns:sketch="http://www.bohemiancoding.com/sketch/ns"
   xmlns:dc="http://purl.org/dc/elements/1.1/"
   xmlns:cc="http://creativecommons.org/ns#"
   xmlns:rdf="http://www.w3.org/1999/02/22-rdf-syntax-ns#"
   xmlns:svg="http://www.w3.org/2000/svg"
   xmlns="http://www.w3.org/2000/svg"
   xmlns:sodipodi="http://sodipodi.sourceforge.net/DTD/sodipodi-0.dtd"
   xmlns:inkscape="http://www.inkscape.org/namespaces/inkscape"
   width="17.707001"
   height="17.707001"
   viewBox="0 0 17.707001 17.707001"
   version="1.1"
   id="svg2"
   inkscape:version="0.48.2 r9819"
   sodipodi:docname="link-zoom.svg">
  <metadata
     id="metadata17">
    <rdf:RDF>
      <cc:Work
         rdf:about="">
        <dc:format>image/svg+xml</dc:format>
        <dc:type
           rdf:resource="http://purl.org/dc/dcmitype/StillImage" />
        <dc:title>icn_search</dc:title>
      </cc:Work>
    </rdf:RDF>
  </metadata>
  <sodipodi:namedview
     pagecolor="#ffffff"
     bordercolor="#666666"
     borderopacity="1"
     objecttolerance="10"
     gridtolerance="10"
     guidetolerance="10"
     inkscape:pageopacity="0"
     inkscape:pageshadow="2"
     inkscape:window-width="748"
     inkscape:window-height="644"
     id="namedview15"
     showgrid="false"
     inkscape:zoom="13.111111"
     inkscape:cx="9"
     inkscape:cy="8.0586949"
     inkscape:window-x="0"
     inkscape:window-y="0"
     inkscape:window-maximized="0"
     inkscape:current-layer="Page-1"
     fit-margin-top="0"
     fit-margin-left="0"
     fit-margin-right="0"
     fit-margin-bottom="0" />
  <!-- Generator: sketchtool 3.4 (356) - http://www.bohemiancoding.com/sketch -->
  <title
     id="title4">icn_search</title>
  <desc
     id="desc6">Created with sketchtool.</desc>
  <defs
     id="defs8" />
  <g
     id="Page-1"
     sketch:type="MSPage"
     style="fill:none;stroke:none">
    <g
       id="t3-Home-mit-Zielgruppen-Nav"
       sketch:type="MSArtboardGroup"
       transform="translate(-1015,-9)"
       style="fill:#7f7f7f">
      <g
         id="Header"
         sketch:type="MSLayerGroup">
        <g
           id="Fläche"
           sketch:type="MSShapeGroup">
          <path
             d="m 1015,16 c 0,3.866 3.134,7.001 7,7.001 1.753,0 3.351,-0.649 4.579,-1.714 l 5.421,5.42 0.707,-0.706 -5.421,-5.421 c 1.065,-1.228 1.714,-2.827 1.714,-4.58 0,-3.866 -3.134,-7 -7,-7 -3.866,0 -7,3.134 -7,7 l 0,0 z m 1,0 c 0,-3.308 2.692,-6 6,-6 3.308,0 6,2.692 6,6 0,3.309 -2.692,6 -6,6 -3.308,0 -6,-2.691 -6,-6 l 0,0 z"
             id="icn_search"
             style="fill:#333333;fill-opacity:1;stroke:none"
             inkscape:connector-curvature="0" />
        </g>
      </g>
    </g>
    <path
       style="fill:none;stroke:#333333;stroke-width:1px;stroke-linecap:butt;stroke-linejoin:miter;stroke-opacity:1"
       d="m 7.0169492,3.279661 -0.076271,8.008475 0,0"
       id="path3762"
       inkscape:connector-curvature="0"
       sodipodi:nodetypes="ccc" />
    <path
       sodipodi:nodetypes="ccc"
       inkscape:connector-curvature="0"
       id="path3764"
       d="m 10.983051,7.322034 -8.0084748,-0.076271 0,0"
       style="fill:none;stroke:#333333;stroke-width:1px;stroke-linecap:butt;stroke-linejoin:miter;stroke-opacity:1" />
  </g>
</svg>
