<?xml version="1.0" encoding="UTF-8" standalone="no"?>
<svg
   xmlns:sketch="http://www.bohemiancoding.com/sketch/ns"
   xmlns:dc="http://purl.org/dc/elements/1.1/"
   xmlns:cc="http://creativecommons.org/ns#"
   xmlns:rdf="http://www.w3.org/1999/02/22-rdf-syntax-ns#"
   xmlns:svg="http://www.w3.org/2000/svg"
   xmlns="http://www.w3.org/2000/svg"
   xmlns:sodipodi="http://sodipodi.sourceforge.net/DTD/sodipodi-0.dtd"
   xmlns:inkscape="http://www.inkscape.org/namespaces/inkscape"
   width="12px"
   height="13px"
   viewBox="0 0 12 13"
   version="1.1"
   id="svg2"
   inkscape:version="0.48.2 r9819"
   sodipodi:docname="link-lock.svg">
  <metadata
     id="metadata18">
    <rdf:RDF>
      <cc:Work
         rdf:about="">
        <dc:format>image/svg+xml</dc:format>
        <dc:type
           rdf:resource="http://purl.org/dc/dcmitype/StillImage" />
      </cc:Work>
    </rdf:RDF>
  </metadata>
  <sodipodi:namedview
     pagecolor="#ffffff"
     bordercolor="#666666"
     borderopacity="1"
     objecttolerance="10"
     gridtolerance="10"
     guidetolerance="10"
     inkscape:pageopacity="0"
     inkscape:pageshadow="2"
     inkscape:window-width="640"
     inkscape:window-height="480"
     id="namedview16"
     showgrid="false"
     inkscape:zoom="18.153846"
     inkscape:cx="6"
     inkscape:cy="6.0317797"
     inkscape:window-x="0"
     inkscape:window-y="0"
     inkscape:window-maximized="0"
     inkscape:current-layer="svg2" />
  <!-- Generator: sketchtool 3.4 (356) - http://www.bohemiancoding.com/sketch -->
  <title
     id="title4">icn_lock</title>
  <desc
     id="desc6">Created with sketchtool.</desc>
  <defs
     id="defs8" />
  <g
     id="Page-1"
     stroke="none"
     stroke-width="1"
     fill="none"
     fill-rule="evenodd"
     sketch:type="MSPage">
    <g
       id="global-Text-Styles"
       sketch:type="MSArtboardGroup"
       transform="translate(-1329.000000, -963.000000)">
      <g
         id="icn_lock"
         sketch:type="MSLayerGroup"
         transform="translate(1329.000000, 963.000000)">
        <path
           d="M11,12 L1,12 L1,6 L1.764,6 L9.986,6 L11,6 L11,12 Z M3,4.111 C3,2.396 4.284,1 6,1 C7.716,1 9,2.396 9,4.111 L9,5 L3,5 L3,4.111 Z M10,5 L10,4.111 C10,1.845 8.267,0 6,0 C3.733,0 2,1.845 2,4.111 L2,5 L0,5 L0,13 L12,13 L12,5 L10,5 Z"
           id="Fill-1"
           fill="#000000"
           sketch:type="MSShapeGroup"
           style="fill:#333333;fill-opacity:1" />
        <path
           d="M6,11 L6,9"
           id="Stroke-3"
           stroke="#000000"
           sketch:type="MSShapeGroup"
           style="stroke:#333333;stroke-opacity:1" />
        <path
           d="M6.5,8.5 C6.5,8.776 6.276,9 6,9 C5.724,9 5.5,8.776 5.5,8.5 C5.5,8.224 5.724,8 6,8 C6.276,8 6.5,8.224 6.5,8.5 L6.5,8.5 Z"
           id="Stroke-5"
           stroke="#000000"
           sketch:type="MSShapeGroup"
           style="stroke:#333333;stroke-opacity:1" />
      </g>
    </g>
  </g>
</svg>
