<?xml version="1.0" encoding="UTF-8" standalone="no"?>
<svg width="16px" height="16px" viewBox="0 0 16 16" version="1.1" xmlns="http://www.w3.org/2000/svg" xmlns:xlink="http://www.w3.org/1999/xlink" xmlns:sketch="http://www.bohemiancoding.com/sketch/ns">
    <!-- Generator: bin/sketchtool 1.4 (305) - http://www.bohemiancoding.com/sketch -->
    <title>Shape</title>
    <desc>Created with bin/sketchtool.</desc>
    <defs></defs>
    <g id="Page-1" stroke="none" stroke-width="1" fill="none" fill-rule="evenodd" sketch:type="MSPage">
        <g id="02-Die-TUM" sketch:type="MSArtboardGroup" transform="translate(-836.000000, -1508.000000)" fill="#FF8D02">
            <g id="Content" sketch:type="MSLayerGroup" transform="translate(54.000000, 198.000000)">
                <g id="rechte-Spalte" transform="translate(763.000000, 36.000000)" sketch:type="MSShapeGroup">
                    <g id="Block-6" transform="translate(0.000000, 809.000000)">
                        <g id="Schrift">
                            <g id="Zeile-7" transform="translate(19.000000, 429.000000)">
                                <g id="Schrift">
                                    <g id="rss" transform="translate(0.000000, 36.000000)">
                                        <path d="M0.4,0.4 L0.4,2.767 C7.486,2.767 13.23,8.513 13.23,15.599 L15.599,15.599 C15.599,7.205 8.794,0.4 0.4,0.4 L0.4,0.4 Z M0.4,5.137 L0.4,7.506 C4.869,7.506 8.493,11.129 8.493,15.6 L10.861,15.6 C10.861,9.822 6.177,5.137 0.4,5.137 L0.4,5.137 Z M2.669,11.059 C1.415,11.059 0.399,12.077 0.399,13.33 C0.399,14.583 1.415,15.6 2.669,15.6 C3.923,15.6 4.938,14.584 4.938,13.33 C4.938,12.076 3.923,11.059 2.669,11.059 L2.669,11.059 Z" id="Shape"></path>
                                    </g>
                                </g>
                            </g>
                        </g>
                    </g>
                </g>
            </g>
        </g>
    </g>
</svg>