<?xml version="1.0" encoding="UTF-8" standalone="no"?>
<svg width="18px" height="18px" viewBox="0 0 18 18" version="1.1" xmlns="http://www.w3.org/2000/svg" xmlns:xlink="http://www.w3.org/1999/xlink" xmlns:sketch="http://www.bohemiancoding.com/sketch/ns">
    <!-- Generator: sketchtool 3.4.4 (395) - http://www.bohemiancoding.com/sketch -->
    <title>icn_search</title>
    <desc>Created with sketchtool.</desc>
    <defs></defs>
    <g id="Page-1" stroke="none" stroke-width="1" fill="none" fill-rule="evenodd" sketch:type="MSPage">
        <g id="t3-Home-mit-Zielgruppen-Nav" sketch:type="MSArtboardGroup" transform="translate(-1015.000000, -9.000000)" fill="#7F7F7F">
            <g id="Header" sketch:type="MSLayerGroup">
                <g id="Fläche" sketch:type="MSShapeGroup">
                    <path d="M1015,16 C1015,19.866 1018.134,23.001 1022,23.001 C1023.753,23.001 1025.351,22.352 1026.579,21.287 L1032,26.707 L1032.707,26.001 L1027.286,20.58 C1028.351,19.352 1029,17.753 1029,16 C1029,12.134 1025.866,9 1022,9 C1018.134,9 1015,12.134 1015,16 L1015,16 Z M1016,16 C1016,12.692 1018.692,10 1022,10 C1025.308,10 1028,12.692 1028,16 C1028,19.309 1025.308,22 1022,22 C1018.692,22 1016,19.309 1016,16 L1016,16 Z" id="icn_search"></path>
                </g>
            </g>
        </g>
    </g>
</svg>